<svg id="Layer_1" data-name="Layer 1" xmlns="http://www.w3.org/2000/svg" xmlns:xlink="http://www.w3.org/1999/xlink" viewBox="0 0 420 250"><defs><style>.cls-1{fill:url(#linear-gradient);}.cls-2{fill:#712726;}.cls-3{fill:#fec67b;}.cls-4{fill:#fff;}.cls-5{fill:#d8e0f2;}.cls-6{fill:#a0b2d5;}.cls-7{fill:#fcbd73;}.cls-8{fill:#f68946;}.cls-9{fill:#b94426;}.cls-10{fill:#3d2921;}.cls-11{fill:#af997e;}.cls-12{fill:#b54a26;}.cls-13{fill:#f47e4f;}.cls-14{fill:#46331e;}.cls-15{fill:#382821;}.cls-16{fill:#c19271;}.cls-17{fill:#c1926e;}.cls-18{fill:#1c1c1c;}.cls-19{fill:#787878;}.cls-20{fill:#2e6767;}.cls-21{fill:#345980;}.cls-22,.cls-23{fill:#263c54;}.cls-22{opacity:0.5;}.cls-24{fill:#737374;}.cls-25{fill:#4e7196;}.cls-26{fill:#3e3e3e;}.cls-27{fill:#93b3b6;}.cls-28{fill:#e5a09f;}.cls-29{fill:#070707;}.cls-30{fill:#232323;}.cls-31{fill:#ef4534;}.cls-32{fill:#43130f;}</style><linearGradient id="linear-gradient" y1="125" x2="420" y2="125" gradientUnits="userSpaceOnUse"><stop offset="0" stop-color="#ee2a7b"/><stop offset="0.45" stop-color="#f0444f"/><stop offset="0.8" stop-color="#f15433"/><stop offset="1" stop-color="#f15a29"/></linearGradient></defs><title>developer-projects</title><rect class="cls-1" width="420" height="250"/><path class="cls-2" d="M69.64,226.14c0-2.68-9.42-4.85-21-4.85s-21.06,2.17-21.06,4.85S37,231,48.59,231,69.64,228.82,69.64,226.14Z"/><path class="cls-2" d="M104.46,226c0-2.68-9.43-4.85-21.06-4.85S62.35,223.27,62.35,226s9.42,4.85,21.05,4.85S104.46,228.63,104.46,226Z"/><path class="cls-3" d="M78.29,142.87c-.31-1.22,0-3.6-.91-4.46a2.34,2.34,0,0,0-.71-.46l0-.06c-.82-2.29-.35-10.51,0-16.1.17-2.51-1.21-6.08-1.84-8.51-.43-1.65.41-4.79-1.76-5-2.64-.31-4.15,2.88-4.57,4.76-.78,3.52-.4,3.6.08,8.49.38,3.88,5.45,13.14,3.06,16.9l-1.3,1.6a4.4,4.4,0,0,0-.45,2.19c0,.9.89.9,1.06,1.74s0,2.76.36,2.94c1.26.63,1.22-.24,2.27-.33,2.06-.19,2.82.23,4.12-1.3A2.45,2.45,0,0,0,78.29,142.87Z"/><path class="cls-4" d="M76.86,116.15a69.15,69.15,0,0,1-1.58-6.94c-.67-7.52-.56-15-.93-22.55-.13-2.62-.45-5.23-.62-7.85a15.37,15.37,0,0,0-1.19-6,.27.27,0,0,0-.45,0,.23.23,0,0,0-.26.15c-.65,1.53-.57,3.21-1,4.81C70.31,80,69.55,82.3,69,84.62a66.65,66.65,0,0,0-1.52,13.5c-.14,4.84,0,9.68.13,14.51.07,2.12.27,4.28.18,6.4-.06,1.36-.35,2.88.34,4.13.47.84,1.65.81,2.46.68a30.08,30.08,0,0,0,5.14-1.15c.6-.21,2.23-.63,2.3-1.31C78.24,119.31,77.54,119.41,76.86,116.15Z"/><path class="cls-5" d="M78.24,117.38s0,2.39,0,3.32c0,.64.06,1.93,0,2.57-.06.41-1,.84-5.88,1.11-4.51.25-4.7.78-5.91.05-1.89-1.13-2.86-5.92-1.23-7.1,1.24-.91,5.3-.14,7.07-.19C73.73,117.1,77.12,116.54,78.24,117.38Z"/><path class="cls-6" d="M72.63,106.56a7.39,7.39,0,0,0-1.48.18c-.41.1-1,.37-1.18.82s.56.66.65.24c.06-.27.62-.46.85-.59a4.23,4.23,0,0,1,1.16-.54C72.7,106.66,72.7,106.56,72.63,106.56Zm.73-1.6a13.91,13.91,0,0,1-4.29-.56c-.1,0-.18,0-.08.09,1.12.49,3.34,1.23,4.63.93C74,105.33,73.81,104.93,73.36,105Zm-1.27-1.6a10.17,10.17,0,0,1-2.91-1.31c-.07,0-.14,0-.08,0a7,7,0,0,0,3.07,1.64C72.47,103.76,72.41,103.43,72.09,103.36Z"/><path class="cls-6" d="M59.31,66.44c-.35-.81-1.8-1.09-2.52-1.28a33.63,33.63,0,0,0-4.52-1c-1.6-.18-3.62-.75-5.09.09-1.35,0-.06,2.6.83,2.94a18.28,18.28,0,0,0,5.47.6,25.19,25.19,0,0,0,5.28,0C59.47,67.68,59.54,67,59.31,66.44Z"/><path class="cls-7" d="M69.54,71.05c-3.33-1-5.5-1.13-9.22-2.67C57.18,67,57.5,62.13,57.8,57.82c-1.3-1.88-8.67-.15-8.67-.15s1,7.92-3.54,9.75c-.12,0-.21.12-.32.15-2.37.75-5.14.61-8.05,1-7.45,1-5.43,1.11-3.95,12.85.24,1.94,2.81,11.51,4.11,20.09.93,6.12.65,18.9.64,20.91,0,5.75,2.34,12.76,3.56,13.71.7.55,7.39-.55,13.65-.17,4.57.27,8.89,2.42,10.56,1.11,3.95-3.09,3.74-7,4-12.47.18-3.88,1-22.47,1.83-33.64.34-4.4.71-7.79.71-8.46C72.33,72.94,74,72.46,69.54,71.05Z"/><path class="cls-8" d="M42.2,40.4a26.73,26.73,0,0,0-.2-3.59,1.85,1.85,0,0,0-.16-.57l0-.3a1.47,1.47,0,0,0-.19-.64,1,1,0,0,0-.35-1,2.47,2.47,0,0,0-1.52-.41h-.13a.39.39,0,0,0-.24,0,2.14,2.14,0,0,0-1.82.88,5.24,5.24,0,0,0-.57,4L37,39a4.76,4.76,0,0,0,.6,1.94,2.56,2.56,0,0,0,.26.36c.9,1.59,2.24,2.54,3.44,1.68.38-.09.7-.55.7-1.37v-.34A2,2,0,0,0,42.2,40.4Z"/><path class="cls-9" d="M41.19,39.65a11,11,0,0,0-.08-1.41A.63.63,0,0,0,41,38a.53.53,0,0,0,0-.12.61.61,0,0,0-.07-.25.41.41,0,0,0-.14-.37.89.89,0,0,0-.59-.16h-.15a.85.85,0,0,0-.72.35A2,2,0,0,0,39.14,39s0,.05,0,.07a1.84,1.84,0,0,0,.24.76.71.71,0,0,0,.1.14c.35.63.88,1,1.35.66.15,0,.28-.22.28-.54,0,0,0-.09,0-.13A.63.63,0,0,0,41.19,39.65Z"/><path class="cls-8" d="M68,41.78a22.07,22.07,0,0,1,.67-3.05,1.31,1.31,0,0,1,.22-.46L69,38a1.4,1.4,0,0,1,.25-.52.91.91,0,0,1,.43-.77A2.1,2.1,0,0,1,71,36.58h.12a.27.27,0,0,1,.2,0,1.87,1.87,0,0,1,1.44,1,4.57,4.57,0,0,1-.06,3.5s0,.09,0,.14a4.21,4.21,0,0,1-.78,1.57,1.42,1.42,0,0,1-.28.27c-1,1.25-2.26,1.87-3.18,1-.31-.13-.52-.57-.41-1.27,0-.1,0-.19,0-.29A1.58,1.58,0,0,1,68,41.78Z"/><path class="cls-9" d="M69.55,41a11.61,11.61,0,0,1,.29-1.3.48.48,0,0,1,.09-.19l0-.11a.42.42,0,0,1,.11-.22.38.38,0,0,1,.18-.33.91.91,0,0,1,.58-.06H71a.8.8,0,0,1,.61.43,1.93,1.93,0,0,1,0,1.49.14.14,0,0,0,0,.06,1.75,1.75,0,0,1-.33.67l-.12.11c-.42.53-1,.8-1.35.42-.13-.06-.23-.25-.18-.54,0,0,0-.09,0-.13A.77.77,0,0,1,69.55,41Z"/><path class="cls-7" d="M69.91,41.62c1.4-2.13.94-9.48.71-11.32-1.2-9.9-8-10.5-11.84-11-7.13-1-16.28.76-17.59,7.79-1.66,8.88-.26,16.78,2.21,26.42,2,7.89,6.62,8.16,10.74,9s11.88,1.06,13-2.27C69.28,54,66.55,46.71,69.91,41.62Z"/><path class="cls-10" d="M69.14,52.45a19.68,19.68,0,0,0-.59-4.18s0,0,0-.05c0-.48,0-1,0-1.45a.35.35,0,0,0-.7-.06,1.19,1.19,0,0,0-.34.26l-.57.65-.18.2a.47.47,0,0,0-.6-.08,2.31,2.31,0,0,0-.66.57,2.24,2.24,0,0,0-1.6.31l-.05,0a.72.72,0,0,0-.14-.24c-.46-.46-3.12,1.43-3.15,1.45-.5-.5-3.15-.31-3.54-.06-.41-.36-3-2.12-3.35-2.27a.24.24,0,0,0-.37.21s0,0,0,0l-.85-.54c-.52-.34-1.36-.8-1.94-.42a.5.5,0,0,0-.13.12A14.89,14.89,0,0,1,49,46.19c-.31-.17-1.18-.41-1.37,0l-.07,0a6.73,6.73,0,0,1-.73-.59c-.48-.41-1.14-1-1.81-.74a.56.56,0,0,0-.32.3,7.84,7.84,0,0,0-.8-.29,6.75,6.75,0,0,1-2.09-1,.37.37,0,0,0-.19-.07.23.23,0,0,0-.42.14,7.15,7.15,0,0,0,.29,2,14.23,14.23,0,0,0,.19,1.79c.14,1,.09,2.69.9,3.35a.56.56,0,0,0,.17.09v.12a10.75,10.75,0,0,0,.31,2.34,2.53,2.53,0,0,1,0,.28c0,1.28-.1,3.26.92,4.18a.51.51,0,0,0,.57.09c.08.29.14.57.19.82a.8.8,0,0,0,1.11.58,2.61,2.61,0,0,0,.62,1,.38.38,0,0,0,.32.09l.09.26a.56.56,0,0,0,.75.32.79.79,0,0,0,.87.33l.14,0a1.6,1.6,0,0,0,0,.21.86.86,0,0,0,1.23.54,1,1,0,0,0,1.2.6,1.13,1.13,0,0,0,.57-.4l0,.1a.67.67,0,0,0,1.2.17.7.7,0,0,0,.73.23l.18-.08a.84.84,0,0,0,1,.5.94.94,0,0,0,.54-.46l.06.11a.64.64,0,0,0,1,.11v0a.68.68,0,0,0,.76.31l0,0a.19.19,0,0,1,0,.07.82.82,0,0,0,1,.56.78.78,0,0,0,.44-.3.76.76,0,0,0,.76,0A1,1,0,0,0,61,63.66a.89.89,0,0,0,1.19,0,1,1,0,0,0,1.39-.06.89.89,0,0,0,1-.46A1,1,0,0,0,66,62.38a1,1,0,0,0,1.08-.69,3.28,3.28,0,0,0,.09-.89.84.84,0,0,0,.89-.65,4.77,4.77,0,0,0,0-1.46.58.58,0,0,0,.22-.38A9.23,9.23,0,0,0,68.18,56a.63.63,0,0,0,.35-.53,2,2,0,0,0,0-.55.77.77,0,0,0,.36-.85c0-.31-.06-.66-.1-1h0A.76.76,0,0,0,69.14,52.45Z"/><path class="cls-11" d="M63.92,49.66a10,10,0,0,0-1.94.48,13.12,13.12,0,0,1-2.86.38.06.06,0,0,0,0,.12c1.39.54,3.6-.12,4.87-.75A.13.13,0,0,0,63.92,49.66Z"/><path class="cls-11" d="M63.68,51.22c-1.65.26-3.1,1.49-4.86.84,0,0-.06,0,0,.06a5.26,5.26,0,0,0,5-.78C63.81,51.29,63.74,51.21,63.68,51.22Z"/><path class="cls-11" d="M67.31,48.87a6.65,6.65,0,0,0-1.26.67c-.54.27-1.09.51-1.6.83a.09.09,0,0,0,.09.16c.54-.27,1.11-.49,1.67-.73A2.34,2.34,0,0,0,67.4,49C67.42,48.92,67.38,48.85,67.31,48.87Z"/><path class="cls-11" d="M66.9,50.12a15,15,0,0,0-2.24,1.09c-.08.06,0,.22.08.18A6.85,6.85,0,0,0,67,50.24.08.08,0,0,0,66.9,50.12Z"/><path class="cls-11" d="M66.27,48.5a2.09,2.09,0,0,0-1.22.74c-.06.06,0,.18.11.13.36-.27.84-.42,1.17-.72A.09.09,0,0,0,66.27,48.5Z"/><path class="cls-11" d="M68.09,47.31a1.7,1.7,0,0,0-.76.89.1.1,0,0,0,.16.1,2.83,2.83,0,0,0,.73-.89A.09.09,0,0,0,68.09,47.31Z"/><path class="cls-11" d="M57.48,50.52c-.26,0-.49.1-.76.11a2,2,0,0,1-1-.31,4.53,4.53,0,0,1-1.46-1.43c-.06-.08-.22,0-.18.08a3.55,3.55,0,0,0,1.5,1.59c.48.31,1.56.71,2,.14A.1.1,0,0,0,57.48,50.52Z"/><path class="cls-11" d="M57.79,51.88a3.54,3.54,0,0,0-1.65-.25,4.32,4.32,0,0,1-2.49-1.3s-.1,0-.07.05A4.41,4.41,0,0,0,57.75,52,.09.09,0,0,0,57.79,51.88Z"/><path class="cls-11" d="M53.4,48.58a1,1,0,0,0-.39-.13,2.69,2.69,0,0,1-.65-.34,6.17,6.17,0,0,1-1-.92c-.07-.07-.17,0-.13.11a3,3,0,0,0,1,1c.24.18.84.59,1.15.37A.07.07,0,0,0,53.4,48.58Z"/><path class="cls-11" d="M52.73,50.78c-.27-.21-.59-.34-.87-.54a6.75,6.75,0,0,1-1-.91,9,9,0,0,1-1.43-2c0-.08-.16,0-.12.07a9.75,9.75,0,0,0,1.5,2.24c.44.5,1.18,1.25,1.89,1.27A.08.08,0,0,0,52.73,50.78Z"/><path class="cls-11" d="M48.74,48a4.47,4.47,0,0,1-1.08-1.09.09.09,0,0,0-.15.09,3.37,3.37,0,0,0,.87,1.08c.28.24.66.64,1,.69a.08.08,0,0,0,.08-.1C49.37,48.39,49,48.22,48.74,48Z"/><path class="cls-11" d="M46.85,47a2.86,2.86,0,0,0-.64-.56,2.94,2.94,0,0,1-.7-.75c-.08-.12-.25,0-.2.12a2.44,2.44,0,0,0,1.46,1.3S46.89,47.1,46.85,47Z"/><path class="cls-11" d="M44.83,46.23a7.32,7.32,0,0,0-1.24-1,5.58,5.58,0,0,0-1.49-.82c-.05,0-.09.06-.05.09.39.31.82.57,1.24.87a6.7,6.7,0,0,0,1.48.93A.06.06,0,0,0,44.83,46.23Z"/><path class="cls-11" d="M42.53,46.31c0-.05-.1-.05-.1,0a16.16,16.16,0,0,0,.31,2.07A23.22,23.22,0,0,1,42.86,51a.11.11,0,0,0,.22,0A8.8,8.8,0,0,0,42.53,46.31Z"/><path class="cls-11" d="M44.81,55.63c0-.83,0-1.66-.1-2.47a.1.1,0,1,0-.19,0,22.52,22.52,0,0,0-.05,2.47,10.49,10.49,0,0,0,.08,2.17.11.11,0,0,0,.22,0A10.48,10.48,0,0,0,44.81,55.63Z"/><path class="cls-11" d="M44,52.36c0-1,.39-2,.52-3,0-.13-.17-.16-.23-.06-1,1.62-.88,4.3-.49,6.08,0,.13.21.09.22,0C44,54.37,43.91,53.37,44,52.36Z"/><path class="cls-11" d="M44.93,47.26c-.41-.26-.75.25-.89.56a.1.1,0,0,0,.17.11,1.34,1.34,0,0,1,.38-.37,2,2,0,0,1,.34-.13A.1.1,0,0,0,44.93,47.26Z"/><path class="cls-11" d="M45.85,49a.09.09,0,0,0-.16-.06,5.58,5.58,0,0,0-.06,4.93.11.11,0,0,0,.2,0,18.7,18.7,0,0,0-.26-2.11A8,8,0,0,1,45.85,49Z"/><path class="cls-11" d="M47.16,59.93a8.32,8.32,0,0,1-1.36-3.6.08.08,0,0,0-.16,0A4.16,4.16,0,0,0,47,60.09.12.12,0,0,0,47.16,59.93Z"/><path class="cls-11" d="M47.47,57.31a6.46,6.46,0,0,1-.76-2.48c-.06-.85-.05-1.71-.09-2.56,0,0,0,0,0,0-.09,1.37-.84,4.33.7,5.21A.13.13,0,0,0,47.47,57.31Z"/><path class="cls-11" d="M48,53.64a7.27,7.27,0,0,0-.17-1,.09.09,0,0,0-.18,0c-.19.55-.26,1.68.33,2a.14.14,0,0,0,.21-.12A3.71,3.71,0,0,0,48,53.64Z"/><path class="cls-11" d="M50.07,61.32c-.32-.4-.7-.74-1-1.18a7.35,7.35,0,0,1-.76-1.54c0-.08-.14-.07-.14,0a3.61,3.61,0,0,0,.52,1.75c.25.46.69,1.08,1.25,1.17A.13.13,0,0,0,50.07,61.32Z"/><path class="cls-11" d="M49.25,56.86c-.19-.47-.26-1-.47-1.44a.1.1,0,0,0-.18,0c-.26.89.45,2.23,1,2.92a.11.11,0,0,0,.2-.09A10,10,0,0,0,49.25,56.86Z"/><path class="cls-11" d="M67.52,51.16c-.09,0-.2.05-.14.14.3.44.33,1,.62,1.42a.1.1,0,0,0,.18,0A1.49,1.49,0,0,0,67.52,51.16Z"/><path class="cls-11" d="M67.25,53.5c-.07-.09-.23,0-.2.08.34,1.15.08,2.39.45,3.51a.1.1,0,0,0,.2,0A4.24,4.24,0,0,0,67.25,53.5Z"/><path class="cls-11" d="M65.46,52.52s-.12,0-.1.08a20,20,0,0,1,.39,3.07.12.12,0,0,0,.24,0C66.21,54.72,66.34,53.19,65.46,52.52Z"/><path class="cls-11" d="M66.37,57.45a.06.06,0,0,0-.11,0A10.69,10.69,0,0,1,66,59.71a7,7,0,0,0-.35,2.06.16.16,0,0,0,.29.07,4.41,4.41,0,0,0,.56-2.06A6.53,6.53,0,0,0,66.37,57.45Z"/><path class="cls-11" d="M64.27,54.88c0-.1-.2,0-.18.08a21.19,21.19,0,0,1,0,3.65.15.15,0,0,0,.27.08A4.5,4.5,0,0,0,64.27,54.88Z"/><path class="cls-11" d="M63.21,58.86a.09.09,0,0,0-.18,0,17.9,17.9,0,0,1-.36,2.31c-.18.52-.65,1.13-.28,1.64a.13.13,0,0,0,.2,0,4.93,4.93,0,0,0,.68-1.76A4.47,4.47,0,0,0,63.21,58.86Z"/><path class="cls-11" d="M61.48,56.5a.1.1,0,0,0-.19,0c-.12.51-.17,1-.28,1.56a6,6,0,0,0-.29,1.4.09.09,0,0,0,.15.06A3.94,3.94,0,0,0,61.48,56.5Z"/><path class="cls-11" d="M61.17,60.63a5.55,5.55,0,0,1-.89,1.45,4.88,4.88,0,0,0-.85,1.08c0,.07,0,.14.12.12.48-.13.87-.68,1.16-1.07a3.2,3.2,0,0,0,.63-1.55C61.35,60.56,61.21,60.55,61.17,60.63Z"/><path class="cls-11" d="M50.44,55.66c0-.11-.22-.09-.21,0a6.8,6.8,0,0,0,1.2,3.39.12.12,0,0,0,.22-.09C51.43,57.82,50.71,56.81,50.44,55.66Z"/><path class="cls-11" d="M52.11,61.89c-.22-.34-.42-.7-.64-1s-.3-.71-.54-.82a.13.13,0,0,0-.16,0c-.15.27.17.69.29.9A4,4,0,0,0,52,62C52,62.09,52.18,62,52.11,61.89Z"/><path class="cls-11" d="M54.1,61.43a12.31,12.31,0,0,1-.83-1.17,11,11,0,0,1-.58-1.67.09.09,0,0,0-.17,0c.19.81.33,2.82,1.42,3A.14.14,0,0,0,54.1,61.43Z"/><path class="cls-11" d="M59.41,59.21c-.4,1-1.24,1.74-1.54,2.74a.15.15,0,0,0,.25.14,7.14,7.14,0,0,0,1.51-2.82C59.68,59.12,59.47,59.07,59.41,59.21Z"/><path class="cls-11" d="M57.15,59.31c-.42,1-1.16,1.75-1.52,2.73a.13.13,0,0,0,.21.13,7.07,7.07,0,0,0,1.54-2.77C57.42,59.27,57.21,59.18,57.15,59.31Z"/><path class="cls-11" d="M55,58.84c0-.14-.29-.11-.27,0,.07.72.05,1.44.18,2.15a.09.09,0,0,0,.17,0A5.07,5.07,0,0,0,55,58.84Z"/><path class="cls-12" d="M61.23,46.12c-.86-2.55-1.24-3.9-2-6.54-.67-2.21-.92-5.21-1.37-3.92-.34,1-1.52,7-2,9.91-.14.75-.19.75-.2.91,0,.75.29,1.14,1,1.77a3.11,3.11,0,0,0,3.44.48C61.27,48.24,61.79,47.8,61.23,46.12Z"/><path class="cls-13" d="M61,45.35c-.8-2.37-1-3.63-1.8-6.07-.63-2.05-.88-4.83-1.3-3.64s-2.22,9.84-2.26,10.55.24.52.89.71c.3.09,3.28.45,3.88.6C61.89,47.9,61.5,46.9,61,45.35Z"/><path class="cls-4" d="M50.2,35.28c-4.14,0-4.14,2.39,0,2.39S54.33,35.28,50.2,35.28Z"/><path class="cls-14" d="M49.13,35.51a1.2,1.2,0,0,0,0,2.39A1.2,1.2,0,0,0,49.13,35.51Z"/><path class="cls-14" d="M50.38,36.4c5.8.16,1.35-1.4-.17-1.18S43.5,36.22,50.38,36.4Z"/><path class="cls-4" d="M64.5,36.19c-4,0-4,2.39,0,2.39S68.53,36.19,64.5,36.19Z"/><path class="cls-14" d="M64.8,37.15c5.8.15,1.35-1.41-.18-1.18S57.92,37,64.8,37.15Z"/><path class="cls-14" d="M63.55,36.31a1.2,1.2,0,0,0,0,2.39A1.2,1.2,0,0,0,63.55,36.31Z"/><path class="cls-7" d="M47.63,50.63c2.15,2.95,3.28,6.51,6.49,6.86,1.53.17,3.47.74,5,0a11.44,11.44,0,0,0,4.25-3.77c.11-.15-3.86,1.46-7.5.77A22.89,22.89,0,0,1,47.63,50.63Z"/><path class="cls-14" d="M64.46,52.71s-3.39,4.87-9,3.94-8.25-6.74-8.8-7.63-.21-1.23.57-.53c3.43,3.06,11.42,5.42,16.21,4C65.58,51.89,64.46,52.71,64.46,52.71Z"/><path class="cls-4" d="M62.07,53a13.38,13.38,0,0,1-2.86.11,24.55,24.55,0,0,1-10-3c0,.17.12.8,0,.93s-.77.07-1,.13a11.42,11.42,0,0,0,7.26,4.67c.3,0,.6.08.89.1a10.07,10.07,0,0,0,6.06-1.64c-.06-.09-.68-.31-.71-.41S62.07,53.13,62.07,53Z"/><path class="cls-15" d="M70.1,33.87c-1.11-.17-2.7-.3-3.82-.41-.66-.07-2.92,0-4.21-1.2-.85-.76-1.57.91-.55,1.67a3.67,3.67,0,0,0,2.26.83c.39,0,5-.31,6.35-.44C70.39,34.29,70.34,33.91,70.1,33.87Z"/><path class="cls-16" d="M70.08,33.91a18.7,18.7,0,0,1-4.41-.28,7.42,7.42,0,0,1-3.91-1.35s-.06,0,0,0A3.6,3.6,0,0,0,64,33.73c2,.34,4.09.31,6.15.49C70.32,34.24,70.31,33.88,70.08,33.91Z"/><path class="cls-15" d="M53.45,31.17c-2.51-1.09-7.49-1.56-9.1,1.07-.66,1.08,0,1,.89.12,1.87-1.87,5.41-.37,7.52.38a1.7,1.7,0,0,0,1.61-.53C54.62,31.78,54.05,31.43,53.45,31.17Z"/><path class="cls-17" d="M54,31.54c-2.68-1.06-8.31-2.18-9.72,1.06,0,0,0,.06.06,0C46.35,30,51,30.58,53.7,32,54,32.17,54.33,31.67,54,31.54Z"/><path class="cls-4" d="M100,222.61c0-.7-6.33-1.27-14.14-1.27s-14.14.57-14.14,1.27v1.27c0,1.1,6.33,2,14.14,2s14.14-.88,14.14-2Z"/><path class="cls-18" d="M96.56,219.42c-1.34.24-12.45-3.42-14-4.07a47.41,47.41,0,0,0-4.49-2c-1.89-.57-4.29,1.21-5.3,2.92-.85,1.44-1.55,3.94-.92,5.61.31.8,1.06,1,1.75,1.13a26.3,26.3,0,0,0,4.5.45c3.58.22,19.63.91,21.78-.94C100.6,221.89,100,218.8,96.56,219.42Z"/><path class="cls-19" d="M95,223.56c2.42-.18,4.31-.51,5-1.06s.09-3.47-3-3.12h0A6.12,6.12,0,0,0,95.51,222,10.81,10.81,0,0,0,95,223.56Z"/><path class="cls-4" d="M88.78,219.78a.52.52,0,0,0-.07-.33c.18-.26.32-.62.43-.8a9,9,0,0,0,.51-.93l-.65-.2-.51,1.06a4.92,4.92,0,0,0-.31.74,1,1,0,0,0-.59.46.49.49,0,0,0,.29.72.77.77,0,0,0,.37,0,.43.43,0,0,0,.35-.14.84.84,0,0,0,.19-.61A0,0,0,0,1,88.78,219.78Z"/><path class="cls-4" d="M87.28,217l-.65-.21a7.59,7.59,0,0,0-.54,1,3.89,3.89,0,0,0-.56,1.18.66.66,0,0,0-.19.09.33.33,0,0,0-.17.16l-.06.07a.34.34,0,0,0-.06.27.39.39,0,0,0,.09.37l.21.16a.42.42,0,0,0,.57-.15c.08-.11.09-.26.16-.36A.36.36,0,0,0,86,219a3.75,3.75,0,0,0,.43-.73A4.67,4.67,0,0,1,87.28,217Z"/><path class="cls-4" d="M83.38,218.58s0,0,0-.05c.49-.46.88-1,1.33-1.53.2-.23.42-.45.64-.66l-.65-.22-.38.49a8.6,8.6,0,0,0-1.16,1.63.46.46,0,0,0-.5.06l-.06.08h0l0,.05a.13.13,0,0,0,0,.06.41.41,0,0,0,0,.08A.45.45,0,1,0,83.38,218.58Z"/><path class="cls-4" d="M95,219.21l-.62-.15a7.18,7.18,0,0,0-1,1.28.46.46,0,0,0-.5,0,.16.16,0,0,0-.06.08h0l0,.06s0,0,0,.06a.21.21,0,0,0,0,.07.45.45,0,1,0,.87.06s0,0,0-.06C94.09,220.22,94.52,219.67,95,219.21Z"/><path class="cls-4" d="M92.31,218.51l-.6-.17c-.08.16-.15.31-.2.39a11.31,11.31,0,0,0-.59,1.15.51.51,0,0,0-.52.2.49.49,0,0,0-.13.52.33.33,0,0,0,.11.15.25.25,0,0,0,.13.12l.13.06a.39.39,0,0,0,.46-.09l.19-.28a.38.38,0,0,0,0-.4l0,0c.25-.39.51-.78.75-1.18Z"/><path class="cls-5" d="M69.54,71.05c-3.33-1-5.5-1.13-9.22-2.67a3.65,3.65,0,0,1-1.47-1.21L56.7,70.86V70.6H52.28v.06L47.6,65.87a4.74,4.74,0,0,1-2,1.55c-.12,0-.21.12-.32.15-2.37.75-5.14.61-8.05,1-7.45,1-5.43,1.11-3.95,12.85.24,1.94,2.81,11.51,4.11,20.09.93,6.12.65,18.9.64,20.91,0,5.75,2.34,12.76,3.56,13.71.7.55,7.39-.55,13.65-.17,3.35.19,6.56,1.4,8.7,1.52l1.8-.37.06,0c3.95-3.09,3.74-7,4-12.47.19-4,1-22.62,1.83-33.64.3-3.9.71-7.84.71-8.46C72.33,72.94,74,72.46,69.54,71.05Z"/><path class="cls-6" d="M53.57,73.72c0-.32-.08-.63-.11-1C53.5,73.09,53.54,73.4,53.57,73.72Z"/><path class="cls-20" d="M69.89,122.87c-4.6.37-9.72,2.11-15,1.75A98.89,98.89,0,0,1,38,122c-.17,15.32,3,26.23,4.82,41.22.59,5,1.1,9.4,1.45,12.81.57,5.56,1.44,16.78,2.18,26.73.23,3.1-.24,9.07-.22,9.78,0,1.28.63,1.44.71,2.54.05.64-.53,1.5-.49,2.06s1,.89.68,1.25-1.95,1.69-.6,2.91c1.17,1.06,7.63-.15,7.63-.15s6.19.42,7.15-.79c.59-.74-.62-2.33-1.48-2.57-.45-.13.76-.38.67-.92s-.82-2-.93-2.65c-.57-3.45-1.56-7.68-2.24-12.36-1.39-9.54-2.69-20.18-2.57-25.9.08-3.72-.58-7.22-.84-12.89-.34-7.62-.53-15.74-.56-20.91a4.65,4.65,0,0,1,2.48-3.74c1.22-.7,2.48,4.06,2.93,5.33,2.91,8.31,6.8,25.82,8.14,34.67,1.19,7.91,3.08,27.62,4,37.55.07.79-.68,1.76-.62,2.42.07.81.87,1.19.84,1.69-.06.94-.15,1.42.32,1.82,1.22,1,4.06-1.06,5.39-1.84s3.58-5.32,6.9-4.3c.68.21,1.21-.6.75-1.8-.16-.41-1.34-.51-1.44-1.11s.19-1.14.09-1.7c-.14-.8-.67-1.54-.84-2.45-1.9-10.22-5.21-26.35-6.49-34.47C73.87,161.78,69.6,141.42,69.89,122.87Z"/><path class="cls-20" d="M69.89,122.87c-4.6.37-9.72,2.11-15,1.75A98.89,98.89,0,0,1,38,122c-.17,15.32,3,26.23,4.82,41.22.59,5,1.1,9.4,1.45,12.81.57,5.56,1.44,16.78,2.18,26.73.23,3.1-.24,9.07-.22,9.78,0,1.28.63,1.44.71,2.54.05.64-.53,1.5-.49,2.06s1,.89.68,1.25-1.95,1.69-.6,2.91c1.17,1.06,7.63-.15,7.63-.15s6.19.42,7.15-.79c.59-.74-.62-2.33-1.48-2.57-.45-.13.76-.38.67-.92s-.82-2-.93-2.65c-.57-3.45-1.56-7.68-2.24-12.36-1.39-9.54-2.69-20.18-2.57-25.9.08-3.72-.58-7.22-.84-12.89-.34-7.62-.53-15.74-.56-20.91a4.65,4.65,0,0,1,2.48-3.74c1.22-.7,2.48,4.06,2.93,5.33,2.91,8.31,6.8,25.82,8.14,34.67,1.19,7.91,3.08,27.62,4,37.55.07.79-.68,1.76-.62,2.42.07.81.87,1.19.84,1.69-.06.94-.15,1.42.32,1.82,1.22,1,4.06-1.06,5.39-1.84s3.58-5.32,6.9-4.3c.68.21,1.21-.6.75-1.8-.16-.41-1.34-.51-1.44-1.11s.19-1.14.09-1.7c-.14-.8-.67-1.54-.84-2.45-1.9-10.22-5.21-26.35-6.49-34.47C73.87,161.78,69.6,141.42,69.89,122.87Z"/><path class="cls-21" d="M69.89,122.87c-4.6.37-9.72,2.11-15,1.75A98.89,98.89,0,0,1,38,122c-.17,15.32,3,26.23,4.82,41.22.59,5,1.1,9.4,1.45,12.81.57,5.56,1.44,16.78,2.18,26.73.23,3.1-.24,9.07-.22,9.78,0,1.28.63,1.44.71,2.54.05.64-.53,1.5-.49,2.06s1,.89.68,1.25-1.95,1.69-.6,2.91c1.17,1.06,7.63-.15,7.63-.15s6.19.42,7.15-.79c.59-.74-.62-2.33-1.48-2.57-.45-.13.76-.38.67-.92s-.82-2-.93-2.65c-.57-3.45-1.56-7.68-2.24-12.36-1.39-9.54-2.69-20.18-2.57-25.9.08-3.72-.58-7.22-.84-12.89-.34-7.62-.53-15.74-.56-20.91a4.65,4.65,0,0,1,2.48-3.74c1.22-.7,2.48,4.06,2.93,5.33,2.91,8.31,6.8,25.82,8.14,34.67,1.19,7.91,3.08,27.62,4,37.55.07.79-.68,1.76-.62,2.42.07.81.87,1.19.84,1.69-.06.94-.15,1.42.32,1.82,1.22,1,4.06-1.06,5.39-1.84s3.58-5.32,6.9-4.3c.68.21,1.21-.6.75-1.8-.16-.41-1.34-.51-1.44-1.11s.19-1.14.09-1.7c-.14-.8-.67-1.54-.84-2.45-1.9-10.22-5.21-26.35-6.49-34.47C73.87,161.78,69.6,141.42,69.89,122.87Z"/><path class="cls-22" d="M83.77,215.8c.68.21,1.21-.6.75-1.8-.16-.41-1.34-.51-1.44-1.11s.19-1.14.09-1.7c-.14-.8-.67-1.54-.84-2.45-1.9-10.22-5.21-26.35-6.49-34.47-.37-2.37-.83-5-1.32-7.89.61,3.56,1.3,10.49-1.14,9.59-1.53-.56-3.45-6.92-4.21-8.32-1.85-3.44-5.76-17.14-6.69-21.07-2.11-8.87-8-19.4-3.86-3.34.07.22.13.41.18.55,2.91,8.31,6.8,25.82,8.14,34.67,1.19,7.91,3.08,27.62,4,37.55.07.79-.68,1.76-.62,2.42.07.81.87,1.19.84,1.69-.06.94-.15,1.42.32,1.82,1.22,1,4.06-1.06,5.39-1.84S80.45,214.78,83.77,215.8Z"/><path class="cls-22" d="M59.86,217.83c-.45-.13.76-.38.67-.92s-.82-2-.93-2.65c-.57-3.45-1.56-7.68-2.24-12.36-1.39-9.54-2.69-20.18-2.57-25.9.08-3.72-.58-7.22-.84-12.89-.32-7.14-.5-14.72-.55-19.9a16.37,16.37,0,0,0-1,4.4,60,60,0,0,0,.22,11.21c.26,3.48.34,7,.65,10.44,0,.25,0,.51,0,.77-.14,2.31-.5,5.71-2.77,7-1.5.83-2.68-1.27-3.22-2.32-1.88-3.6-2.6-7.91-3.31-11.86-.33-1.87-.72-3.7-1.13-5.55a40.21,40.21,0,0,0-1.71-6.16c.63,3.85,1.26,7.82,1.77,12.14.59,5,1.1,9.4,1.45,12.81.57,5.56,1.44,16.78,2.18,26.73.23,3.1-.24,9.07-.22,9.78,0,1.28.63,1.44.71,2.54.05.64-.53,1.5-.49,2.06s1,.89.68,1.25-1.95,1.69-.6,2.91c1.17,1.06,7.63-.15,7.63-.15s6.19.42,7.15-.79C61.93,219.66,60.72,218.07,59.86,217.83Z"/><path class="cls-23" d="M53.42,212.76c.08,0,.1-.14,0-.17-2-.53-5.24-1-7,1A4.91,4.91,0,0,1,47,215C48.11,212.64,51.67,212.75,53.42,212.76Z"/><path class="cls-23" d="M57.54,213.37a8,8,0,0,1,2.7,2.65,11.5,11.5,0,0,1-.64-1.76c-.05-.31-.11-.63-.17-.95a10.55,10.55,0,0,0-1-.53,25.17,25.17,0,0,0-4.17-1.59c-.14,0-.22.26-.08.34A36.42,36.42,0,0,1,57.54,213.37Z"/><path class="cls-23" d="M76.89,214.08a.07.07,0,0,0,0,.13c1.93-.52,5.82-1.64,7.62-.07a.74.74,0,0,1,0-.14c-.16-.41-1.34-.51-1.44-1.11a1.6,1.6,0,0,1,0-.44A13.85,13.85,0,0,0,76.89,214.08Z"/><path class="cls-23" d="M70.93,216.23a9.58,9.58,0,0,1,2.66-2.31c1.13-.78,2.41-1.31,3.61-2a.15.15,0,0,0-.13-.27,35,35,0,0,0-4.58,1.88,9.79,9.79,0,0,0-1.69,1c0,.51.1,1,.14,1.47A.81.81,0,0,1,70.93,216.23Z"/><path class="cls-23" d="M77.47,216a38,38,0,0,0-4.58,1.88,9.39,9.39,0,0,0-2.17,1.39c.22.3.46.54.44.81s0,.64,0,.88A7.94,7.94,0,0,1,74,218.3c1.13-.78,2.41-1.31,3.61-2C77.75,216.23,77.63,216,77.47,216Z"/><path class="cls-3" d="M45,128.34c-1.25-1.11-2.56-2.83-4.38-3.22a2.37,2.37,0,0,0-.84,0l-.07,0c-3.34-1.5-4.78-9.4-7.38-14.36-1.17-2.22-4-5.18-5.84-6.93-1.22-1.17-3.35-3-5.34-2.11-2.4,1.12-2,4.62-1.4,6.45,1.18,3.41,2.24,2.84,4.51,7.19,1.24,2.38,10.84,11.06,11.39,13.92h0a4.38,4.38,0,0,0-.21.93c-.14,1.38,1.44,3.63,2,4.64a5,5,0,0,0,2.52,2.61c1.15-.82,2.3-1.53,3.14-2.16,1.66-1.23,2.84-2.88,4.36-4.2A12,12,0,0,0,45,128.34Z"/><path class="cls-4" d="M32.27,69.75c-2,2.11-6,14.45-7.22,17.87s-4.56,9.6-5.33,11.32c-2.22,4.93-2.75,6.8.71,11.3,4.28,5.59,3.76,5.7,4.05,6.27s9.56-3.8,9-4.9c-.36-.71-2.16-3.39-3.41-5.37-.19-.3.35-1.61.19-1.87-.41-.67-1.41-.15-1.44-.31s1.47-.51,1.61-1-.82-.59-.59-1.13.67.21.87-.57a51,51,0,0,1,4.83-11.08c1.91-2.85,1.29-8.59.47-12.84C34.28,68.42,32.27,69.75,32.27,69.75Z"/><path class="cls-5" d="M34.5,112.64a5.59,5.59,0,0,0-1.4-2.06,12,12,0,0,0-1.28-2.43,1,1,0,0,0-.36-.49.32.32,0,0,0-.23-.3c-.74-.25-1.59.24-2.25.54a32.38,32.38,0,0,0-4.42,2.66,10.37,10.37,0,0,0-2.73,1.9,1,1,0,0,0-.35.65.14.14,0,0,0,0,.17l0,0A2.79,2.79,0,0,0,22,114.6c.69,1,1.6,1.87,2.37,2.84.07.27.13.54.22.82a1.19,1.19,0,0,0,1.3,1,7.67,7.67,0,0,0,2.82-1.52l.36-.23.23-.13a21.55,21.55,0,0,0,2-1.17l.57-.31a12.9,12.9,0,0,0,2-1.11.36.36,0,0,0,.22,0C35,114.22,34.92,113.38,34.5,112.64Z"/><path class="cls-6" d="M27.44,114.48c-.4.36-.84.68-1.21,1.07s-.89.93-.89,1.52a.29.29,0,0,1-.22.29l-.08,0a.32.32,0,0,1-.3-.39,2.6,2.6,0,0,1,1-1.48,14.67,14.67,0,0,1,1.59-1.12C27.42,114.36,27.49,114.44,27.44,114.48Zm5.24-4c-1.78-1.24-4.08.83-5.2,2.12,0,0,0,.09.06.06,1.05-.82,3.3-2.64,4.64-1.53A.41.41,0,1,0,32.68,110.46Zm-8.4,2a7.83,7.83,0,0,0-1.32.68c-.36.24-.85.71-.83,1.18s.75.43.69,0c0-.28.43-.64.59-.85a4.14,4.14,0,0,1,.92-.9A.06.06,0,0,0,24.28,112.44Zm5.17-11.07a3.42,3.42,0,0,0-3.93-.32s0,0,0,0A6.67,6.67,0,0,0,27,101a2.36,2.36,0,0,1,1.93.87C29.25,102.24,29.81,101.67,29.45,101.37Zm-1.15,2.38c-.56-.42-1.61-.23-2.28-.23a4.51,4.51,0,0,0-2.52.58,0,0,0,0,0,0,.09,5.45,5.45,0,0,1,3,0c.56.13,1.27.41,1.79.1A.29.29,0,0,0,28.3,103.75Zm-5.74.84a5.57,5.57,0,0,0-2.72,2.1c-.48.58.62,1.06.72.29.13-1.07,1.27-1.72,2-2.3A0,0,0,0,0,22.56,104.59Zm7,1.17a10.32,10.32,0,0,1-3.16-.41c-.07,0-.13,0-.06.06a6.9,6.9,0,0,0,3.41.69C30.06,106,29.92,105.74,29.58,105.76Z"/><path class="cls-4" d="M61.88,223.45c0-.7-3.9-1.27-8.71-1.27s-8.7.57-8.7,1.27v1.27c0,1.09,3.9,2,8.7,2s8.71-.89,8.71-2Z"/><path class="cls-18" d="M44.63,223.3v0a.17.17,0,0,0,.09.26,27.41,27.41,0,0,0,7.39.61c2.66.17,9.72-.41,9.77-.74.32-2.21,0-5.54-8.71-4.94C46.9,218.94,45.06,221.47,44.63,223.3Z"/><path class="cls-24" d="M55.64,219.49c-5.1-.66-8.54.87-9.85,4a.12.12,0,0,0,.08.06,23.52,23.52,0,0,0,6.84.61,49.13,49.13,0,0,0,7.34-.38C59.67,221.14,58.58,219.87,55.64,219.49Z"/><path class="cls-21" d="M40,144.69a71.6,71.6,0,0,0-2.64-8.47c-.46-1.1-.46-1.2.64-1.79s6.81-3.49,8-6.88c.34-1,1.28.2,1.65.6S46.24,141.91,40,144.69Z"/><path class="cls-21" d="M64.24,127.18c.55-.62.83-.22,1.47,1.27s3.5,5.21,4.51,5.69a1.52,1.52,0,0,1,.6,2.18c-.37.5-.23,4.82,0,6.39-2.48-.81-7.58-9.28-7.54-13.56A14.82,14.82,0,0,1,64.24,127.18Z"/><path class="cls-25" d="M47.7,128.2s0,0,0,0c-.37-.4-1.31-1.57-1.65-.6-1.2,3.39-6.9,6.28-8,6.88s-1.1.69-.64,1.79c0,.09.08.21.14.34A25.3,25.3,0,0,0,47.7,128.2Z"/><path class="cls-25" d="M70.22,134.14c-1-.48-3.86-4.2-4.51-5.69s-.92-1.89-1.47-1.27l-.3.52a23.22,23.22,0,0,0,6.8,8.77.54.54,0,0,1,.06-.11,2.54,2.54,0,0,1,.24-.8l0,0A1.46,1.46,0,0,0,70.22,134.14Z"/><path class="cls-25" d="M57.28,126.79c0,.59-.47,8.25-.87,9.15-1.49,0-1.86-1.2-1.94-2.26-.1-1.28.45-5.83.59-7.13S57.28,126.79,57.28,126.79Z"/><path class="cls-21" d="M56.22,135.28c-.43-.12-.8-.52-.89-1.65a59.47,59.47,0,0,1,.48-6.1c0-.37.08-.68.1-.9a3.2,3.2,0,0,1,1,.47C56.88,128.57,56.51,133.7,56.22,135.28Z"/><path class="cls-26" d="M71.59,90.29c.21-4-.7-18.88-3-19.89a10.69,10.69,0,0,0-3.15-.83c-1.2-.15-3.83-.91-3.87-.47,0,6.43-4.76,15-5.42,15A61.87,61.87,0,0,1,46.8,72.76c-.82-1.35-1.88-3.52-2.58-5-.23-.55-1.84.17-3.35.14a27.1,27.1,0,0,0-4.23.08c-.9.11.73,4.81,1,7.33,1.13,9,1,13.47-2,16.92.62,2.94,1.23,6.15,1.69,9.23.9,6.12-.29,15.09-.29,17.1,0,5.75,5.71,5.42,6.89,6.37.69.55,18.57,4.19,23.93.58,4.07-2.73,2-3.66,2.29-9.15C70.33,112.67,71.11,99.14,71.59,90.29Z"/><path class="cls-27" d="M70,76.11c-1-2-1.87-4.88-4.16-5.69a.21.21,0,0,0-.24.1c-.93,1.91-2.74,3.66-3.07,5.82a.16.16,0,0,0,0,.15v0a.11.11,0,0,0,.11.14,26.25,26.25,0,0,1,2.71,4.26c.81,1.35,1.1,2.93,1.94,4.26a.26.26,0,0,0,.09.09.25.25,0,0,0,.47,0c.44-1.46.81-2.94,1.23-4.4a20.1,20.1,0,0,0,1-4.64A.11.11,0,0,0,70,76.11Z"/><path class="cls-27" d="M48.18,78.53h0A.32.32,0,0,0,48,78.1a98.26,98.26,0,0,0-5.43-9.39c-.05-.07-.18,0-.17,0s0,0,0,0a.1.1,0,0,0,0,0c-.76,1.36-1.37,2.79-2.24,4.1a11,11,0,0,0-1.58,2.9.34.34,0,0,0,0,.1.1.1,0,0,0,0,.13c1.18,2.11,2.56,4.11,3.72,6.24.29.52,1.44,3,2.33,2.69a.18.18,0,0,0,.1-.26,1.28,1.28,0,0,0-.15-.25A55.63,55.63,0,0,0,47.94,79,.34.34,0,0,0,48.18,78.53Z"/><path class="cls-27" d="M62.19,96.12c-.24-.47-.55-.91-.78-1.4-.4-.86-.72-1.75-1.11-2.62a40.22,40.22,0,0,0-3.59-5.65c-.1-.14-.36,0-.29.13l0,.07s-.05,0-.06,0c-1,1.51-2.13,3-3,4.57a14.83,14.83,0,0,1-3,4.4c-.23.19,0,.47.21.47a9.59,9.59,0,0,0,1.17,2.27,28,28,0,0,1,1.87,4.19c.37,1,.78,4.17,2.07,4.46a.12.12,0,0,0,.15-.1.15.15,0,0,0,.12-.09c.84-1.64,2.13-3,3-4.56,1.11-2,2.32-3.85,3.49-5.76A.28.28,0,0,0,62.19,96.12Z"/><path class="cls-27" d="M48,115.71a32.1,32.1,0,0,1-2.48-6.52c-.25-.88-.59-3.17-1.51-3.86a.94.94,0,0,1,.06-.15c.06-.15-.16-.27-.27-.16l-.12.15a.11.11,0,0,0-.1.13,39.47,39.47,0,0,0-2.31,3.28q-1.39,2-2.86,4a.24.24,0,0,0,0,.24.14.14,0,0,0,0,.11,49.57,49.57,0,0,0,3.09,9.58.24.24,0,0,0,.46,0,9.84,9.84,0,0,1,3.56-3.94,8,8,0,0,0,2.73-2.41A.28.28,0,0,0,48,115.71Z"/><path class="cls-27" d="M70,115.9c-.17-.79-1.53-7.58-2.77-8.53,0,0,0,0,0,0s-.12-.2-.2-.12l0,0a.24.24,0,0,0-.12,0s0,0,0,.06l0,.1c-1.05,1.28-1.52,3.14-2.17,4.64a29.64,29.64,0,0,1-3.52,5.56c-.2.27.22.55.44.34a10.5,10.5,0,0,1,2.44,3.12c.48.85.72,2.32,1.48,2.94a.23.23,0,0,0,.36,0,1.39,1.39,0,0,0,.09.46c.05.13.26.17.29,0A13.44,13.44,0,0,1,68,120.76a11,11,0,0,0,1.44-3.63,7.22,7.22,0,0,0,.31-.89A.3.3,0,0,0,70,115.9Z"/><path class="cls-28" d="M70.83,95a13.71,13.71,0,0,0-.93-4.23,23.66,23.66,0,0,0-2-4.53v0a.23.23,0,0,0-.16-.27h0a.14.14,0,0,0-.26.11v0s0,0,0,0a27.52,27.52,0,0,1-2.09,5.48c-.85,1.69-2,3.19-2.62,5a.15.15,0,0,0,.15.18,0,0,0,0,0,0,0c.78,1.85,1.55,3.74,2.2,5.64.47,1.35.74,3.12,1.74,4.21l0,0,0,0a.23.23,0,0,0,.4-.09,3.77,3.77,0,0,0,.5-1.25c.32-1.06.66-2.1,1.06-3.14a60.35,60.35,0,0,0,2.08-7A.22.22,0,0,0,70.83,95Z"/><path class="cls-28" d="M60.73,117c-.78-1.58-1.3-3.25-2-4.85s-2.11-3.21-2.75-5a.29.29,0,0,0-.48-.12c-1.73,2.08-3.44,4.23-5,6.43-.37.53-1.53,1.66-1.65,2.47,0,0,0,0,0,0s-.35,0-.29.12a59.14,59.14,0,0,0,4.68,9.22.29.29,0,0,0,.46.06,25.41,25.41,0,0,0,1.87-2c.68-.68,1.54-1.2,2.24-1.87a18.6,18.6,0,0,0,3.12-3.57.32.32,0,0,0,.1-.18l.12-.19A.3.3,0,0,0,60.73,117Z"/><path class="cls-28" d="M48.1,91.29a53.91,53.91,0,0,0-3.86-5.71.26.26,0,0,0-.47.06A31.81,31.81,0,0,1,41,91.07c-.6,1.11-1.58,2.06-1.6,3.38a.1.1,0,0,0,.09.11,17.57,17.57,0,0,0,1.85,4,33,33,0,0,1,2.35,5.74.24.24,0,0,0,.47,0c.52-1.56,1.68-2.66,2.64-3.94,1.11-1.47,1.71-3.25,2.86-4.7a.27.27,0,0,0,.35-.31A13.83,13.83,0,0,0,48.1,91.29Z"/><path class="cls-29" d="M70.23,100.67c-.82-2-1.7-3.91-2.6-5.84.3-.74.61-1.48,1-2.21a15.86,15.86,0,0,0,1.51-4.27.07.07,0,1,0-.14,0c-.75,2-1.64,4.06-2.53,6.08-.53-1.12-1.06-2.24-1.6-3.35-.93-1.9-2-3.72-3.07-5.53a2.44,2.44,0,0,1,.14-.28c1-2.15,2-4.34,3-6.49l.68-1.38c1,1.7,1.91,3.54,3.06,5.14.09.12.33,0,.26-.11a34.79,34.79,0,0,0-2.75-4.91c-.12-.19-.23-.39-.34-.59a23.91,23.91,0,0,0,1.89-4.74c0-.15-.18-.25-.25-.1-.69,1.39-1.35,2.79-2,4.21C65.7,74.89,65,73.5,64.08,72.2c-.08-.12-.3,0-.24.1a31.41,31.41,0,0,0,2.41,4.45c-1.27,2.74-2.5,5.5-3.8,8.22v0c-.72-1.21-1.44-2.43-2.12-3.66-.06-.09-.21,0-.18.07a22.59,22.59,0,0,0,2,4.18,82.58,82.58,0,0,1-5.8,9.7c-.4-.79-.81-1.58-1.22-2.37-1.4-2.65-2.78-5.25-4.3-7.78a17.74,17.74,0,0,0,1.36-2.81c.06-.18-.21-.29-.31-.13-.47.78-.95,1.55-1.43,2.31-.88-1.42-1.8-2.83-2.81-4.2s-2-2.66-3-4c.43-.74.84-1.49,1.2-2.28a.12.12,0,0,0-.2-.12c-.45.67-.87,1.34-1.29,2l-1-1.3a20.36,20.36,0,0,0-4.13-4.36c-.13-.1-.27.1-.17.22a61.37,61.37,0,0,1,5,5.92c-.49.8-1,1.61-1.47,2.41-.86,1.39-2,2.72-2.33,4.37,0,.19.24.34.33.14a56.37,56.37,0,0,1,3.76-6.53c1,1.39,2.07,2.8,3.1,4.21s1.82,2.64,2.65,4c-1.38,2.16-2.8,4.29-4.22,6.45-.44.68-.85,1.38-1.24,2.08a55.33,55.33,0,0,0-4.11-7.28.2.2,0,0,0-.35.21c1.47,2.56,2.8,5.17,4.06,7.81-.35.64-.69,1.29-1,1.93a36,36,0,0,0-2.43,4.9c0,.16.18.3.29.17A24.61,24.61,0,0,0,43.43,97c.36-.7.72-1.39,1.09-2.08,1.56,3.29,3,6.64,4.48,10,.06.15.13.29.19.44-1.11,1.54-2.2,3.1-3.24,4.69-.84,1.28-1.64,2.57-2.49,3.82-.89-3.11-2-6.14-3-9.22a.14.14,0,0,0-.27.08c.65,3.29,2,6.43,2.9,9.64,0,0,0,0,0,.06-.43.6-.87,1.2-1.34,1.77-1.36,1.63-3,3.2-3.91,5.17-.13.3.31.57.45.26.93-2,2.74-3.71,4.17-5.43.29-.34.55-.7.82-1,.61,2.48,1,5.49,2.57,7.45.12.14.36,0,.31-.18-.44-1.34-1.07-2.61-1.47-4s-.67-2.56-1-3.84c.87-1.24,1.66-2.52,2.47-3.81,1-1.66,2.16-3.28,3.31-4.89,1.26,2.84,2.62,5.64,4,8.42l1.23,2.43c-.8,1-1.59,2-2.34,3-.91,1.23-2.1,2.12-3,3.31-.16.21.2.48.36.28.84-1.06,1.94-1.84,2.77-2.93s1.64-2.1,2.48-3.13a61.72,61.72,0,0,0,3.65,6.39.24.24,0,0,0,.41-.24c-1.18-2.26-2.39-4.49-3.58-6.73.2-.24.39-.49.59-.72a53.15,53.15,0,0,0,5.8-8.45c1.38,3,2.73,6,4.21,8.94-.12.18-.22.37-.35.56-.84,1.25-1.72,2.47-2.53,3.74-.64,1-1.72,2.08-2,3.26,0,.14.15.26.25.15a16.24,16.24,0,0,0,1.9-2.68c.89-1.45,1.86-2.84,2.82-4.24.06-.1.13-.2.2-.3.69,1.35,1.41,2.69,2.19,4,.14.24.5,0,.38-.22q-1.12-2.18-2.2-4.35a20.8,20.8,0,0,0,3.16-6.87.11.11,0,0,0-.21-.06,42.58,42.58,0,0,1-3.2,6.41q-2.19-4.42-4.31-8.87A75.25,75.25,0,0,0,66.34,98c.34-.85.67-1.71,1-2.56h0a37.13,37.13,0,0,0,2.47,5.35C70,101,70.33,100.91,70.23,100.67Zm-20.75,4c-1.51-3.45-2.93-7-4.55-10.47.45-.82.91-1.63,1.41-2.42,1.27-2,2.85-4,4.15-6.08,1.56,2.61,3,5.32,4.39,8L56,95.81c-.44.63-.87,1.27-1.31,1.91-1.65,2.4-3.4,4.75-5.11,7.12Zm11.89,2.53a53.21,53.21,0,0,1-6,8.82l-.14.18c-1.88-3.55-3.72-7.11-5.37-10.79,1.78-2.47,3.6-4.91,5.32-7.4l1.13-1.66c1.83,3.49,3.62,7,5.27,10.55Zm4.53-9.31c-1.23,2.89-2.59,5.73-4.09,8.49-1.7-3.53-3.41-7.06-5.2-10.55a90.69,90.69,0,0,0,5.84-9.7c.82,1.38,1.69,2.74,2.43,4.15s1.53,3.16,2.26,4.76C66.72,96,66.3,96.91,65.9,97.86Z"/><path class="cls-30" d="M62.91,69.28c-1.07,2.35-1.61,5-2.58,7.42s-2,5.7-3.95,7.7c-2.67-1.94-4.61-4.66-6.69-7.17-2.45-2.94-3.85-6.3-5.79-9.54-.11-.19-.36,0-.33.14.5,3.52,3.15,6.79,5.27,9.52S53.2,83,56.06,85.09a2.82,2.82,0,0,0,.72-.14c1.95-1.68,2.86-4.61,3.84-6.91,1.11-2.62,2.58-5.78,2.64-8.66C63.26,69.2,63,69.11,62.91,69.28Z"/><path class="cls-30" d="M36.88,68.35a.11.11,0,0,0-.22,0c-.22,2,.65,4.07,1.08,6A44.8,44.8,0,0,1,38.55,81a27.17,27.17,0,0,1-.19,5.77,15.89,15.89,0,0,1-.64,2.62,9.64,9.64,0,0,1-1.35,2.74.33.33,0,0,0-.38.25s0,.06,0,.1a.35.35,0,0,0,.34.45c1,0,1.85-2.58,2.13-3.34a18.05,18.05,0,0,0,.9-6.36A53.18,53.18,0,0,0,36.88,68.35Z"/><path class="cls-6" d="M49.67,75.58c-2.15-1.5-6.78-8.45-7.6-8.76A9.75,9.75,0,0,1,47.72,64c-1.1,2.17,5.64,6,5.64,6l0,0s.06,0,.06.07c.08,1.66.49,3.32.7,5,.17,1.32.28,2.64.41,4s.24,2.48.38,3.71a4.84,4.84,0,0,0-.66-.62c-.08-1-.13-2.06-.19-3.09l0-.4c-.25-1.35-.36-2.74-.61-4.1s0-.84-1-.47C52.06,74.23,49.54,74.94,49.67,75.58Zm6.25-5.53s-.56,2,.41,2.91,3.71,1.09,4.08,2.53a43.21,43.21,0,0,0,4.37-7.22S60.34,65.68,58.91,66C59.44,68.44,55.92,70.05,55.92,70.05Zm.1,5.78a.51.51,0,0,0-.38.26c-.29,0-.36.52-.16.79a.65.65,0,1,0,.54-1Zm.66,6.48c-.38-.26-.72.15-.8.52a.36.36,0,0,0,.23.44l.09,0a.86.86,0,0,0,.38.13.27.27,0,0,0,.3-.14A.73.73,0,0,0,56.68,82.31Z"/><path class="cls-4" d="M53.36,70S50,71.67,48.93,73.84c-1.62-1.52-6-6.73-6.86-7,1.45-1.55,4.22-3,5.65-2.78C46.62,66.05,53.36,70,53.36,70Zm2.56,0s4.49,2,4.89,4a24.87,24.87,0,0,0,4-5.82S60.34,65.71,58.91,66C59.44,68.25,55.92,70.05,55.92,70.05Z"/><path class="cls-31" d="M62.48,75.93c-1,.86-5.4-1.82-5.4-1.82s-1.39.44-1.72.14-.16-2.13-.16-2.13-.39-1.1-.08-1.47,1.78-.06,1.78-.06,4.51-1.82,5.49-1c.37.31-.25,2.42-.25,2.42S62.84,75.6,62.48,75.93Z"/><path class="cls-31" d="M47.62,77.33c1.25.5,5.42-2.85,5.42-2.85s1.43.18,1.71-.18-.18-2.14-.18-2.14.32-.8,0-1.13-1.77.1-1.77.1-5.11-1.81-5.94-.78c-.31.39.38,2.61.38,2.61S46.62,76.93,47.62,77.33Z"/><path class="cls-31" d="M56.83,74.28a7,7,0,0,1-3.68.35c-.4-.34-.2-2.16-.2-2.16s-.51-1.64-.19-2a7.31,7.31,0,0,1,3.83-.19c.38.33.11,1.94.11,1.94S57.17,73.88,56.83,74.28Z"/><path class="cls-7" d="M48.68,128.39a4.81,4.81,0,0,1-.75,0,12.49,12.49,0,0,1-1.29-.19,11.28,11.28,0,0,1-3.7-1.76s-.08.2-.11.52a6.34,6.34,0,0,1,.35.54,2.12,2.12,0,0,1,.24,1l.33.56c1.44.67,3.47,1.73,4.52,1.26a1.51,1.51,0,0,0,.59-.92C48.93,129.05,48.8,128.38,48.68,128.39Z"/><path class="cls-23" d="M60.41,217.26a14.43,14.43,0,0,0-6.11-.34c-.09,0-.08.13,0,.14,1.78.11,5.22.27,6.78,1.79a2.52,2.52,0,0,0-1.23-1C59.52,217.74,60.12,217.57,60.41,217.26Z"/><path class="cls-23" d="M46.93,218.68a12,12,0,0,1,2.64-1.43c1.26-.56,2.62-.85,3.92-1.3.16,0,.09-.3-.08-.28a37,37,0,0,0-4.85,1,10.33,10.33,0,0,0-2,.75c.23.41.83.7.59,1A2.3,2.3,0,0,1,46.93,218.68Z"/><path class="cls-32" d="M74.69,35.16c0-.45-.13-.53-.54-.54l-6.65-.23a17.07,17.07,0,0,0-6.39.75A6.54,6.54,0,0,1,55.66,35a17.39,17.39,0,0,0-6.32-1.2l-6.66-.23c-.41,0-.56.06-.57.5s-.24,2.35.38,2.94a2.55,2.55,0,0,1,.88,1.49,6.23,6.23,0,0,0,6.1,5.37,6.51,6.51,0,0,0,7.12-4.5,2,2,0,0,1,1.68-1.14,2,2,0,0,1,1.61,1.25c.19.8,1.39,5,6.78,5a6.22,6.22,0,0,0,6.46-4.94,2.65,2.65,0,0,1,1-1.42C74.76,37.52,74.68,35.61,74.69,35.16ZM55.56,39.73c-1,2.89-4,3.45-5.8,3.39-5.34-.33-5.27-5.61-5.23-6.84s.5-1.41,2.12-1.57a24.4,24.4,0,0,1,7.57.71C56.29,36.09,56.52,36.85,55.56,39.73Zm10.86,4c-1.79-.06-4.79-.84-5.55-3.78s-.47-3.69,1.64-4.21a24.54,24.54,0,0,1,7.6-.18c1.6.28,2,.48,2,1.71S71.77,43.74,66.42,43.7Z"/></svg>