<svg id="Layer_1" data-name="Layer 1" xmlns="http://www.w3.org/2000/svg" xmlns:xlink="http://www.w3.org/1999/xlink" viewBox="0 0 960 400"><defs><style>.cls-1{fill:url(#linear-gradient);}.cls-2{fill:#fff;}.cls-3{fill:#e5e5e4;}.cls-4{fill:#2a3036;}.cls-5{fill:#c7c6c5;}.cls-6{fill:#f15d4a;}.cls-7{fill:#dcdbdb;}.cls-8{fill:#f4c914;}.cls-9{fill:#6cbe45;}.cls-10{fill:#545b6c;}.cls-11{fill:#5c6471;}.cls-12{fill:#fddc51;}.cls-13{fill:#778193;}.cls-14{fill:#3c4250;}.cls-15{fill:#22272e;}.cls-16{opacity:0.25;}.cls-17,.cls-22{fill:#010101;}.cls-18{fill:#5bc3f0;}.cls-19{fill:#f26755;}.cls-20{fill:#55b94a;}.cls-21{fill:#c895c3;}.cls-22{opacity:0.23;}</style><linearGradient id="linear-gradient" y1="200" x2="960" y2="200" gradientUnits="userSpaceOnUse"><stop offset="0" stop-color="#ec008c"/><stop offset="1" stop-color="#f15a29"/></linearGradient></defs><title>hero-img</title><rect class="cls-1" width="960" height="400"/><path class="cls-2" d="M883.75,280.11V259.37H586.18v20.74a16.51,16.51,0,0,0,16.52,16.51H867.22A16.54,16.54,0,0,0,883.75,280.11Z"/><path class="cls-2" d="M799,336.83c-2.22-.84-4.66-1-7-1.51-3.44-.83-6.79-2-9.36-4.53a17.36,17.36,0,0,1-4.77-9.07c-.92-4.86-1.06-10-1.49-14.94-.23-2.56-.48-6.79-.72-10.16H694.19c-.24,3.37-.5,7.6-.73,10.16-.44,4.94-.57,10.08-1.5,14.94a17.27,17.27,0,0,1-4.76,9.07c-2.59,2.53-5.91,3.7-9.37,4.53-2.3.54-4.72.67-6.94,1.51s-3.39,2.47-1.08,4,5.29,1.41,7.86,1.41H792.23c2.57,0,5.63,0,7.87-1.41S801.11,337.62,799,336.83Z"/><path class="cls-3" d="M776.45,306.78c-.23-2.56-.48-6.79-.72-10.16H694.19c-.24,3.37-.5,7.6-.73,10.16-.44,4.94-.57,10.08-1.5,14.94a14.08,14.08,0,0,1-.54,2h87.05c-.19-.66-.4-1.32-.53-2C777,316.86,776.88,311.72,776.45,306.78Z"/><path class="cls-4" d="M883.75,74.31a16.55,16.55,0,0,0-16.53-16.53H602.7a16.52,16.52,0,0,0-16.52,16.53V259.37H883.75Z"/><path class="cls-5" d="M694.19,296.62c-.14,2-.29,4.27-.43,6.33h82.4c-.14-2.06-.29-4.34-.43-6.33Z"/><rect class="cls-6" x="600.1" y="71.02" width="269.72" height="188.34"/><path class="cls-7" d="M742.05,278a7.09,7.09,0,1,1-7.09-7.08A7.08,7.08,0,0,1,742.05,278Z"/><rect class="cls-2" x="600.1" y="71.02" width="269.72" height="10.3"/><path class="cls-6" d="M610.44,76.17a2.54,2.54,0,1,1-2.54-2.53A2.54,2.54,0,0,1,610.44,76.17Z"/><circle class="cls-8" cx="618.02" cy="76.17" r="2.53"/><path class="cls-9" d="M630.66,76.17a2.53,2.53,0,1,1-2.53-2.53A2.53,2.53,0,0,1,630.66,76.17Z"/><rect class="cls-10" x="600.1" y="81.32" width="66.01" height="178.05"/><rect class="cls-11" x="666.11" y="81.32" width="203.71" height="178.05"/><rect class="cls-12" x="600.1" y="121.16" width="66.01" height="11.63"/><rect class="cls-13" x="600.1" y="109.53" width="66.01" height="11.63"/><rect class="cls-14" x="600.1" y="132.8" width="66.01" height="11.63"/><rect class="cls-13" x="600.1" y="144.43" width="66.01" height="11.63"/><rect class="cls-14" x="600.1" y="156.06" width="66.01" height="11.63"/><rect class="cls-13" x="600.1" y="167.69" width="66.01" height="11.63"/><rect class="cls-14" x="600.1" y="179.33" width="66.01" height="11.63"/><rect class="cls-13" x="600.1" y="190.96" width="66.01" height="11.63"/><rect class="cls-14" x="600.1" y="97.9" width="66.01" height="11.63"/><rect class="cls-14" x="605.03" y="148.09" width="4.31" height="4.31"/><rect class="cls-15" x="605.03" y="159.72" width="4.31" height="4.31"/><rect class="cls-14" x="605.03" y="171.35" width="4.31" height="4.31"/><rect class="cls-15" x="605.03" y="182.99" width="4.31" height="4.31"/><rect class="cls-14" x="605.03" y="194.62" width="4.31" height="4.31"/><rect class="cls-15" x="605.03" y="136.46" width="4.31" height="4.31"/><rect class="cls-14" x="605.03" y="113.19" width="4.31" height="4.31"/><rect class="cls-15" x="605.03" y="101.56" width="4.31" height="4.31"/><g class="cls-16"><rect class="cls-17" x="678.1" y="101.75" width="119.42" height="5.3"/><rect class="cls-17" x="678.1" y="124.04" width="71.34" height="5.3"/><rect class="cls-17" x="760.3" y="124.04" width="37.22" height="5.3"/><rect class="cls-17" x="808.38" y="101.75" width="52.9" height="5.3"/><rect class="cls-17" x="808.38" y="124.04" width="52.9" height="5.3"/><rect class="cls-17" x="678.1" y="224.34" width="71.34" height="5.3"/><rect class="cls-17" x="760.3" y="224.34" width="37.22" height="5.3"/><rect class="cls-17" x="808.38" y="224.34" width="52.9" height="5.3"/><rect class="cls-17" x="678.1" y="112.89" width="49.63" height="5.3"/><rect class="cls-17" x="738.58" y="112.89" width="122.69" height="5.3"/><rect class="cls-17" x="678.1" y="146.33" width="49.63" height="5.3"/><rect class="cls-17" x="738.58" y="146.33" width="122.69" height="5.3"/><rect class="cls-17" x="678.1" y="213.2" width="49.63" height="5.3"/><rect class="cls-17" x="738.58" y="213.2" width="122.69" height="5.3"/><rect class="cls-17" x="678.1" y="235.49" width="49.63" height="5.3"/><rect class="cls-17" x="738.58" y="235.49" width="122.69" height="5.3"/><rect class="cls-17" x="819.24" y="157.47" width="42.04" height="5.3"/><rect class="cls-17" x="688.95" y="157.47" width="119.42" height="5.3"/><rect class="cls-17" x="830.09" y="190.91" width="31.18" height="5.3"/><rect class="cls-17" x="699.81" y="190.91" width="119.42" height="5.3"/><rect class="cls-17" x="688.95" y="168.62" width="71.34" height="5.3"/><rect class="cls-17" x="771.16" y="168.62" width="90.12" height="5.3"/><rect class="cls-17" x="710.67" y="202.05" width="71.34" height="5.3"/><rect class="cls-17" x="792.87" y="202.05" width="68.41" height="5.3"/><rect class="cls-17" x="678.1" y="135.18" width="94.61" height="5.3"/><rect class="cls-17" x="783.56" y="135.18" width="77.71" height="5.3"/><rect class="cls-17" x="806.83" y="179.76" width="54.45" height="5.3"/><rect class="cls-17" x="699.81" y="179.76" width="96.16" height="5.3"/></g><rect class="cls-12" x="676.37" y="101.75" width="119.42" height="5.3"/><rect class="cls-18" x="676.37" y="124.04" width="71.34" height="5.3"/><rect class="cls-12" x="758.57" y="124.04" width="37.22" height="5.3"/><rect class="cls-18" x="806.65" y="101.75" width="52.9" height="5.3"/><rect class="cls-19" x="806.65" y="124.04" width="52.9" height="5.3"/><rect class="cls-20" x="676.37" y="224.34" width="71.34" height="5.3"/><rect class="cls-2" x="758.57" y="224.34" width="37.22" height="5.3"/><rect class="cls-12" x="806.65" y="224.34" width="52.9" height="5.3"/><rect class="cls-2" x="676.37" y="112.89" width="49.63" height="5.3"/><rect class="cls-20" x="736.86" y="112.89" width="122.69" height="5.3"/><rect class="cls-12" x="676.37" y="146.33" width="49.63" height="5.3"/><rect class="cls-18" x="736.86" y="146.33" width="122.69" height="5.3"/><rect class="cls-21" x="676.37" y="213.2" width="49.63" height="5.3"/><rect class="cls-18" x="736.86" y="213.2" width="122.69" height="5.3"/><rect class="cls-2" x="676.37" y="235.49" width="49.63" height="5.3"/><rect class="cls-19" x="736.86" y="235.49" width="122.69" height="5.3"/><rect class="cls-20" x="817.51" y="157.47" width="42.04" height="5.3"/><rect class="cls-19" x="687.23" y="157.47" width="119.42" height="5.3"/><rect class="cls-19" x="828.37" y="190.91" width="31.18" height="5.3"/><rect class="cls-18" x="698.09" y="190.91" width="119.42" height="5.3"/><rect class="cls-21" x="687.23" y="168.62" width="71.34" height="5.3"/><rect class="cls-12" x="769.43" y="168.62" width="90.12" height="5.3"/><rect class="cls-12" x="708.94" y="202.05" width="71.34" height="5.3"/><rect class="cls-20" x="791.15" y="202.05" width="68.41" height="5.3"/><rect class="cls-20" x="676.37" y="135.18" width="94.61" height="5.3"/><rect class="cls-2" x="781.84" y="135.18" width="77.71" height="5.3"/><rect class="cls-20" x="805.1" y="179.76" width="54.45" height="5.3"/><rect class="cls-2" x="698.09" y="179.76" width="96.16" height="5.3"/><rect class="cls-22" x="660.05" y="81.32" width="6.05" height="178.05"/></svg>